<?xml version="1.0" encoding="UTF-8"?>
<!DOCTYPE svg PUBLIC "-//W3C//DTD SVG 1.1//EN" "http://www.w3.org/Graphics/SVG/1.1/DTD/svg11.dtd">
<!-- Creator: FutureCorp VMX -->
<svg width="74" height="48" viewbox="85 0 300 300" xmlns="http://www.w3.org/2000/svg" xml:space="preserve" shape-rendering="geometricPrecision" text-rendering="geometricPrecision" image-rendering="optimizeQuality" fill-rule="evenodd" clip-rule="evenodd"
 xmlns:xlink="http://www.w3.org/1999/xlink">
 <g id="Layer_1">
  <metadata id="FutureCorpID_Layer"/>

  <!-- Logo Outline -->
  <path fill="#fff" fill-rule="nonzero" d="M230.7,217.07 L230.69,217.07 C249.45,178.18 244.75,187.9 263.59,149.05 L267,142.02 C272,133.51 272.32,133.21 285.86,124.76 L357.63,79.93 C362.91,76.1 364.97,72.6 372.87,54.1 C375.17,48.7 374.78,49.41 376.01,48.42 C378.4,46.47 407.76,28.79 421.31,21.13 C432.48,14.81 429.69,16.39 440.87,10.09 L459.48,0.1 C460.04,-0.06 459.83,-0.13 460.92,0.59 C461.28,1.27 461.31,1.08 460.1,5.58 C454.12,27.8 455.65,22.26 449.33,44.38 L438.42,82.57 C434.58,96 434.02,97.52 431.43,101.48 C428.5,105.97 425.43,108.73 419.46,112.24 L384.21,132.97 L379.59,147.09 C378.02,151.9 375.82,155.85 372.91,159.09 C370.66,161.6 368.69,163.15 364.27,165.89 L275.1,221.18 C272.33,223.27 272.29,223.33 267.06,234.11 C249.4,270.49 253.82,261.4 236.08,297.74 C233.46,303.09 234.13,301.76 231.44,307.07 C231.03,307.47 230.04,307.45 229.65,307.03 C229.16,306.51 216.68,281.05 204.88,256.48 C195.37,236.71 189.89,225.54 189.11,224.39 C187.55,222.1 187.29,221.89 181.96,218.58 L93.03,163.39 C87.03,158.95 83.71,154.1 81.1,145.97 C78.7,138.48 79.31,140.36 76.87,132.88 L37.85,109.85 C31.78,105.65 27.93,100.15 25.48,92.21 C18.5,69.58 14.55,55.75 3.97,16.89 C1.7,8.53 -0.03,1.74 0,1.29 C0.14,0.24 0.88,-0.24 1.74,0.16 C5.38,1.88 23.32,11.69 33.24,17.38 C44.08,23.61 41.38,22.04 52.16,28.38 C73.01,40.65 68.52,37.94 83.61,47.37 C86.15,48.96 85.95,48.7 87.45,52.24 C96.1,72.5 97.88,75.64 103.04,79.6 C104.2,80.49 102.62,79.5 114.13,86.53 C124.92,93.12 122.24,91.46 132.95,98.18 C161.73,116.24 154.54,111.71 183.26,129.85 C188.59,133.48 191.2,136.49 194.7,143.02 L230.56,217.36 L230.7,217.07 L230.7,217.07 zM25.46,20.22 L25.46,20.22 L9.06,10.62 C11.16,18.84 17.22,40.83 18.96,46.58 C24.77,65.75 23.32,60.95 29.12,80.13 C32.46,91.16 32.76,91.76 36.39,94.25 L71.55,115 L71.15,113.76 C59.95,78.61 62.75,87.4 51.55,52.25 C51.2,51.17 51.63,50.3 52.64,50.03 L74.25,49.93 C75.39,50.03 75.23,50.04 75.43,49.88 C75.56,49.77 75.61,49.67 75.57,49.59 C46.94,32.81 54.09,37 25.46,20.22 L25.46,20.22 zM61.47,62.89 L61.47,62.89 C61.3,62.81 61.15,62.81 61.1,62.89 C61.03,62.99 61,62.87 61.3,63.69 L84.05,133.67 C85.92,139.43 86.81,141.11 89.29,143.58 C91.29,145.57 90.08,144.72 97.73,149.5 C147.49,180.56 135.05,172.8 184.82,203.85 C201.76,214.41 199.49,212.88 200.68,214.56 C215.73,244.08 211.97,236.7 227.01,266.22 L227.05,258.17 C227.13,237.98 227.13,237.95 226.84,236.97 L179.14,140.68 C174.87,132.05 175.07,132.37 172.96,130.63 L161.59,123.46 C139.3,109.39 144.89,112.88 122.47,99.02 C102.34,86.59 64.36,64.09 61.47,62.89 L61.47,62.89 zM400.03,62.55 L400.05,62.44 L328.44,105.24 L293.58,127.1 C287.12,131.15 286.94,131.29 285.5,133.74 L239.94,225.36 C233.08,239.16 233.93,237.15 233.99,239.44 L234.04,241.57 C234.04,269.14 234,265.69 234.31,265.73 C234.4,265.74 234.51,265.6 234.56,265.4 C234.62,265.19 234.63,265.15 234.77,264.9 L258.29,218.54 C260.85,213.49 260.92,213.4 263.91,211.54 L366.21,147.86 C371.6,144.5 373.75,142.23 375.62,137.92 C381.36,120.41 379.93,124.79 385.64,107.26 C393.98,81.66 391.9,88.06 400.21,62.45 C400.11,62.51 400.13,62.49 400.03,62.55 L400.03,62.55 zM435.82,20.13 L435.82,20.13 C406.72,37.15 413.99,32.89 384.9,49.91 L407.14,49.94 C409.28,49.94 409.95,50.67 409.7,52.72 L389.52,114.98 C404.9,105.97 401.06,108.22 416.45,99.23 C426.66,93.26 426.86,93.11 428.22,90.76 C429.71,88.18 431.4,82.9 439.76,54.53 C443.19,42.9 445.84,33.61 448.5,23.9 C450.58,16.31 450.07,18.21 452.12,10.6 L435.82,20.13 L435.82,20.13 z"/>
  
  <path fill="#fff" d="M19.04,38.76 L19.05,38.77 C37.08,49.25 32.57,46.63 50.59,57.12 C55.2,71.71 54.05,68.06 58.66,82.65 L25.93,63.43 C21.88,49.27 22.89,52.81 18.84,38.65 L19.04,38.76 L19.04,38.76 z"/>
  <path fill="#fff" d="M57.24,40.79 L57.23,40.81 C70.56,48.77 68.87,47.72 69.07,48.17 C58.2,48.24 60.92,48.23 50.04,48.26 L45.15,33.56 L57.24,40.79 L57.24,40.79 z"/>
  <path fill="#fff" d="M101.22,88.55 L136.23,110.06 C142.77,124.82 141.14,121.13 147.68,135.9 L110.12,113.98 C110.05,114 109.99,114.03 109.96,114.07 C109.89,114.19 109.86,114.09 110.21,114.79 L119.62,139.85 C97.52,127.24 103.05,130.39 80.95,117.79 L72.53,92.25 C93.9,104.65 88.56,101.55 109.93,113.94 L100.02,87.81 L101.22,88.55 L101.22,88.55 z"/>
  <path fill="#fff" d="M149.41,136.88 L149.41,136.89 C168.09,147.79 163.42,145.07 182.11,155.94 C186.12,158.27 185.43,157.6 186.9,160.6 C194.45,176.04 192.56,172.18 200.16,187.6 L159.29,163.05 L171.92,192.51 C171.91,192.64 171.84,192.76 171.78,192.78 L129.85,166.68 C129.26,165.95 129.53,166.57 127.96,162.35 L119.65,139.97 L159.65,163.49 C153.02,148.13 154.68,151.97 148.05,136.61 C148.06,136.51 148.11,136.42 148.19,136.37 C148.34,136.26 148.69,136.41 149.41,136.88 L149.41,136.88 z"/>
  
  <!-- Chevy Logo -->
  <path fill="#FDE68A" d="M363.91,109 C364.02,109.15 363.98,109.43 363.8,109.77 C358.68,120.05 359.96,117.48 354.84,127.76 C354.23,128.98 355.02,128.4 349.29,131.86 L337.09,139.22 C336.48,143.76 336.63,142.62 336.02,147.16 L312.39,161.95 L313.43,154.01 C299.39,162.73 302.9,160.55 288.85,169.27 C288.75,169.27 288.7,169.22 288.69,169.1 C288.66,168.85 287.64,170.9 295.8,154.74 C299.01,148.38 298.43,149.28 299.85,148.42 L315.44,138.94 L316.48,131.27 C330,122.79 326.62,124.91 340.14,116.43 C339.55,120.81 339.7,119.72 339.11,124.09 C353.19,115.43 349.67,117.59 363.75,108.93 C363.82,108.93 363.88,108.96 363.91,109 L363.91,109 z"/>
  <path fill="#FDE68A" d="M426.16,74.47 L426.13,74.49 L426.32,74.38 L424.73,79.65 C413.08,86.17 415.99,84.54 404.35,91.05 C405.84,85.72 405.57,86.48 406.21,85.68 L426.16,74.47 L426.16,74.47 z"/>
  <path fill="#FDE68A" d="M428.17,37.76 L428.18,37.77 C428.81,36.99 428.65,37.19 429.29,36.41 C429.74,36.88 430.01,37.29 430.2,37.78 L430.23,37.86 C431.08,40.23 430.69,42.2 428.29,47.53 L427.42,49.47 C431.6,45.36 430.91,45.96 432.2,45.32 C433.24,44.8 434.08,44.77 434.73,45.24 C435.58,45.95 435.84,47.54 435.53,50.2 C435.47,50.78 435.4,51.21 435.3,51.77 C431.61,51.46 432.23,51.45 430.95,51.78 C429.08,52.3 427.04,54.46 424.92,58.15 C422.77,61.89 422.16,64.54 423.3,65.15 C423.5,65.23 423.49,65.23 423.78,65.23 C424.47,65.24 424.69,66.23 424.28,67.5 C424,67.96 424.22,67.79 422.77,68.71 C420.93,69.87 421.09,69.68 419.61,72.74 C419.06,73.88 418.66,74.16 418.01,73.85 C417.75,73.73 417.77,73.89 417.85,72.72 C417.87,71.82 417.55,71.71 415.89,72.09 C415.45,72.16 415.23,71.94 415.28,71.47 C415.42,70.57 415.98,69.34 416.38,69.04 C417.98,67.92 418.81,66.87 419.4,65.21 C420.17,62.91 420.33,58.44 419.67,58.05 C419.11,57.73 419.18,57.68 415.08,61.14 C412.72,63.13 413.08,62.81 412.52,63.42 C412.31,63.63 412.16,63.65 411.99,63.51 C411.67,63.26 412.01,61.94 413.04,59.35 C414.87,54.78 417.48,51.51 419.57,51.16 C420.75,50.99 421.59,51.27 422.83,52.28 C422.88,49.94 422.78,50.62 423.49,47.47 C424.18,44.35 426.17,40.24 428.17,37.76 L428.17,37.76 z"/>
 </g>
</svg>

